<?xml version="1.0" standalone="no"?>
<!DOCTYPE svg PUBLIC "-//W3C//DTD SVG 20010904//EN"
 "http://www.w3.org/TR/2001/REC-SVG-20010904/DTD/svg10.dtd">
<svg version="1.0" xmlns="http://www.w3.org/2000/svg"
 width="512.000000pt" height="512.000000pt" viewBox="0 0 512.000000 512.000000"
 preserveAspectRatio="xMidYMid meet">

<g transform="translate(0.000000,512.000000) scale(0.100000,-0.100000)"
fill="#000000" stroke="none">
<path d="M2481 4639 c-29 -5 -82 -23 -116 -39 -60 -29 -152 -105 -172 -143 -9
-18 -12 -17 -74 3 -137 47 -288 12 -390 -90 -49 -49 -51 -50 -87 -40 -173 48
-380 -61 -437 -231 l-15 -45 -76 -12 c-136 -21 -244 -99 -296 -213 -19 -42
-27 -48 -73 -63 -111 -35 -196 -119 -237 -233 -16 -46 -19 -75 -16 -141 l4
-83 -57 -30 c-103 -55 -185 -153 -215 -258 -23 -76 -20 -195 5 -262 12 -30 21
-56 21 -59 0 -3 -23 -23 -51 -44 -144 -111 -225 -327 -190 -508 14 -70 65
-186 86 -194 13 -6 115 62 115 76 0 4 -12 34 -27 66 -24 51 -28 72 -28 149 0
78 4 98 29 152 41 90 119 160 223 203 72 29 81 36 70 49 -7 9 -28 34 -46 55
-106 125 -97 295 21 401 53 47 122 75 189 75 20 0 50 3 67 6 l31 6 -28 42
c-53 77 -71 123 -71 178 0 64 25 121 71 165 42 39 71 51 153 59 l64 7 7 53
c14 113 108 197 218 196 28 0 79 -10 111 -21 33 -12 62 -21 66 -21 4 0 6 37 3
83 -5 76 -3 86 24 137 42 80 102 115 198 115 66 0 76 -3 128 -37 31 -21 61
-38 66 -38 5 0 17 21 25 48 37 109 115 172 216 172 71 0 116 -22 186 -91 l62
-61 26 78 c27 81 63 138 109 174 87 68 210 84 307 38 93 -44 142 -104 180
-222 l22 -68 62 61 c71 70 115 91 188 91 101 0 181 -68 218 -182 6 -21 16 -38
21 -38 5 0 35 17 66 38 52 34 62 37 128 37 96 0 156 -35 198 -115 27 -51 29
-61 24 -137 -3 -58 -1 -83 7 -83 6 0 36 10 66 21 157 60 306 -20 325 -175 l7
-53 64 -7 c81 -8 103 -17 149 -58 49 -42 75 -99 75 -166 0 -55 -18 -101 -71
-178 l-28 -42 31 -6 c17 -3 47 -6 67 -6 67 0 136 -28 189 -75 118 -106 127
-276 21 -401 -18 -21 -39 -46 -46 -55 -11 -13 -2 -20 70 -49 103 -42 174 -106
220 -199 29 -59 32 -74 32 -156 0 -76 -4 -99 -27 -147 -76 -163 -256 -256
-419 -218 -71 17 -114 39 -178 92 l-53 44 -61 -61 c-51 -51 -71 -64 -115 -75
-61 -14 -117 -8 -170 19 -48 25 -82 62 -124 138 l-34 63 -38 -51 c-95 -124
-186 -172 -326 -173 -75 -1 -93 3 -150 30 -36 17 -85 49 -110 72 l-45 40 -55
-57 c-82 -86 -143 -103 -276 -75 -30 6 -33 4 -44 -30 -25 -76 -104 -136 -180
-136 -76 0 -155 60 -180 136 -11 34 -14 36 -44 30 -133 -28 -194 -11 -276 75
l-55 57 -45 -40 c-25 -23 -74 -55 -110 -72 -57 -27 -75 -31 -150 -30 -140 1
-231 49 -326 173 l-38 51 -34 -63 c-42 -76 -76 -113 -124 -138 -53 -27 -109
-33 -170 -19 -44 11 -64 24 -115 75 l-61 61 -53 -44 c-68 -56 -110 -77 -185
-93 -78 -16 -159 -5 -231 31 -32 16 -58 28 -58 27 -1 -1 -18 -26 -39 -55 -21
-29 -36 -59 -33 -66 7 -19 100 -63 164 -78 l53 -13 0 -317 0 -318 75 0 75 0 0
318 0 317 58 16 c31 9 65 19 75 24 16 7 17 -17 17 -429 l0 -436 75 0 75 0 0
429 0 428 47 -14 c27 -8 54 -17 60 -19 7 -2 31 -42 53 -90 l40 -87 0 -228 0
-229 75 0 75 0 0 190 0 190 23 -5 c12 -3 55 -12 96 -20 40 -8 77 -18 82 -21 5
-3 9 -122 9 -265 l0 -259 75 0 75 0 0 249 0 248 100 -20 100 -20 0 -133 0
-134 75 0 75 0 0 90 0 90 80 -57 c50 -36 80 -65 80 -77 0 -40 -53 -304 -72
-355 -28 -73 -89 -134 -151 -149 l-47 -12 0 -75 0 -75 243 2 242 3 3 73 3 72
-101 0 c-55 0 -100 2 -100 4 0 2 11 24 25 48 35 64 53 142 130 574 l68 381 56
-26 c47 -22 70 -26 141 -26 71 0 94 4 141 26 l55 26 73 -406 c76 -424 88 -478
127 -550 13 -24 24 -45 24 -47 0 -2 -45 -4 -100 -4 l-101 0 3 -72 3 -73 243
-3 242 -2 0 75 0 75 -47 12 c-62 15 -123 76 -151 149 -19 52 -72 316 -72 355
1 12 31 41 80 76 l80 58 0 -90 0 -90 75 0 75 0 0 134 0 133 100 20 100 20 0
-248 0 -249 80 0 80 0 0 265 c0 146 2 265 4 265 5 0 139 27 174 35 l22 5 0
-190 0 -190 75 0 75 0 0 229 0 228 40 87 c22 48 46 88 53 90 6 2 33 11 60 19
l47 14 0 -428 0 -429 75 0 75 0 0 436 c0 412 1 436 18 429 9 -5 43 -15 75 -24
l57 -16 0 -317 0 -318 75 0 75 0 0 318 0 318 71 18 c152 39 297 177 350 333
33 96 33 241 1 335 -30 85 -106 193 -171 243 -28 22 -51 41 -51 42 0 2 9 31
21 65 25 76 27 194 4 264 -37 110 -116 204 -213 253 l-55 28 -1 104 c-1 92 -4
110 -29 161 -48 99 -148 182 -243 202 -25 6 -35 17 -53 55 -51 114 -159 192
-295 213 l-76 12 -15 45 c-34 100 -134 195 -240 227 -57 17 -145 18 -198 3
-38 -10 -39 -10 -78 35 -90 102 -259 143 -398 97 -35 -12 -64 -21 -65 -19 -92
145 -281 227 -455 197z m-1093 -2818 c90 -63 228 -105 332 -100 l55 3 12 -104
c7 -57 11 -105 10 -106 -2 -1 -509 99 -548 109 -19 5 -31 19 -45 54 -10 26
-20 51 -22 54 -1 3 17 14 41 23 25 9 62 32 83 51 46 40 48 41 82 16z m2424
-16 c23 -19 61 -42 85 -51 24 -9 42 -20 41 -23 -2 -3 -11 -27 -22 -53 -10 -26
-26 -50 -35 -53 -25 -8 -556 -114 -558 -111 -1 1 3 49 10 106 l12 104 55 -3
c104 -4 257 43 335 103 28 21 32 20 77 -19z m-1759 -30 c35 -19 89 -40 121
-46 44 -9 55 -15 52 -28 -3 -9 -19 -97 -37 -196 -17 -99 -33 -182 -35 -184 -3
-4 -165 112 -187 133 -8 9 -18 64 -26 142 -7 71 -15 139 -18 150 -3 16 4 26
29 42 18 11 34 21 35 21 1 1 31 -15 66 -34z m1112 14 c28 -17 35 -27 32 -43
-3 -12 -11 -79 -18 -150 -10 -102 -17 -132 -32 -146 -30 -28 -177 -133 -181
-129 -2 2 -18 85 -35 184 -18 99 -34 187 -37 196 -3 13 8 19 53 28 32 6 85 27
118 45 33 19 61 35 62 35 1 1 18 -9 38 -20z"/>
<path d="M3050 3925 l0 -75 75 0 76 0 -3 73 -3 72 -72 3 -73 3 0 -76z"/>
<path d="M3350 3775 l0 -75 75 0 76 0 -3 73 -3 72 -72 3 -73 3 0 -76z"/>
<path d="M2482 548 l3 -73 75 0 75 0 3 73 3 72 -81 0 -81 0 3 -72z"/>
</g>
</svg>
